<?xml version="1.0" encoding="UTF-8" standalone="no"?>
<svg
   xmlns:dc="http://purl.org/dc/elements/1.1/"
   xmlns:cc="http://creativecommons.org/ns#"
   xmlns:rdf="http://www.w3.org/1999/02/22-rdf-syntax-ns#"
   xmlns:svg="http://www.w3.org/2000/svg"
   xmlns="http://www.w3.org/2000/svg"
   id="svg4581"
   version="1.1"
   viewBox="0 0 26.458333 26.458335"
   height="100"
   width="100">
  <defs
     id="defs4575" />
  <metadata
     id="metadata4578">
    <rdf:RDF>
      <cc:Work
         rdf:about="">
        <dc:format>image/svg+xml</dc:format>
        <dc:type
           rdf:resource="http://purl.org/dc/dcmitype/StillImage" />
        <dc:title></dc:title>
      </cc:Work>
    </rdf:RDF>
  </metadata>
  <g
     transform="translate(0,-270.54166)"
     id="layer1">
    <path
       id="path4585"
       d="m 19.84375,296.99999 v -2.64583 c -3.96875,0 -5.291667,-1.32291 -5.291667,-3.96875 3.96875,-1.32292 5.291667,-5.29167 5.820834,-9.26042 3.96875,0 6.085416,-2.64583 6.085416,-5.29166 0,-2.64584 -2.645833,-5.29167 -3.96875,-5.29167 1.322917,2.64583 1.322917,3.96875 -1.322917,5.29166 -2.645833,-1.05833 -4.497916,-1.32291 -7.937499,-1.32292 -3.439584,10e-6 -5.291667,0.26459 -7.9375,1.32292 -2.645834,-1.32291 -2.645834,-2.64583 -1.322917,-5.29166 -1.322917,0 -3.96875,2.64583 -3.96875,5.29167 0,2.64583 2.116666,5.29166 6.085416,5.29166 0.5291673,3.96875 1.852084,7.9375 5.820834,9.26042 0,2.64584 -1.322917,3.96875 -5.2916667,3.96875 v 2.64583"
       style="fill:#ffffff;fill-opacity:1;stroke:#000000;stroke-width:0;stroke-linecap:butt;stroke-linejoin:miter;stroke-miterlimit:4;stroke-dasharray:none;stroke-opacity:1" />
    <path
       id="path4485"
       d="m 6.35,285.09374 c -0.2645833,-2.38125 -2.38125,-2.91041 -3.7041667,-2.64583 -1.3229167,0.26458 -1.8520833,1.32292 -1.3229167,2.64583 0.5291666,1.32291 6.3500001,2.91042 7.6729167,4.23334 1.3229167,1.32291 0.79375,2.11666 -0.5291666,2.38125 m 11.6416663,-6.61459 c 0.264584,-2.38125 2.38125,-2.91041 3.704167,-2.64583 1.322917,0.26458 1.852083,1.32292 1.322917,2.64583 -0.529167,1.32291 -6.35,2.91042 -7.672917,4.23334 -1.322917,1.32291 -0.79375,2.11666 0.529167,2.38125"
       style="fill:none;stroke:#fffff1;stroke-width:1.85208333;stroke-linecap:butt;stroke-linejoin:miter;stroke-miterlimit:4;stroke-dasharray:none;stroke-opacity:1" />
  </g>
</svg>
